<?xml version="1.0" standalone="no"?>
<!DOCTYPE svg PUBLIC "-//W3C//DTD SVG 20010904//EN"
 "http://www.w3.org/TR/2001/REC-SVG-20010904/DTD/svg10.dtd">
<svg version="1.0" xmlns="http://www.w3.org/2000/svg"
 width="1429.000000pt" height="750.000000pt" viewBox="0 0 1429.000000 750.000000"
 preserveAspectRatio="xMidYMid meet">

<g transform="translate(0.000000,750.000000) scale(0.100000,-0.100000)"
fill="#000000" stroke="none">
<path d="M3825 6211 c-78 -19 -161 -96 -183 -169 -7 -23 -12 -106 -12 -201 l0
-161 3385 0 3385 0 0 173 c0 167 -1 175 -26 226 -31 61 -96 114 -161 130 -48
13 -6338 14 -6388 2z m216 -200 c65 -66 20 -171 -74 -171 -71 0 -119 59 -103
126 19 75 121 101 177 45z m310 0 c65 -66 20 -171 -74 -171 -71 0 -119 59
-103 126 19 75 121 101 177 45z m310 0 c65 -66 20 -171 -74 -171 -71 0 -119
59 -103 126 19 75 121 101 177 45z"/>
<path d="M6921 4580 c-121 -26 -205 -121 -237 -269 -19 -89 -19 -403 0 -492
26 -123 81 -200 174 -246 50 -24 68 -28 152 -28 88 0 101 3 162 33 67 33 99
65 135 137 40 79 48 140 48 355 0 170 -4 215 -19 265 -36 120 -84 181 -174
222 -59 28 -169 38 -241 23z m178 -184 c47 -45 56 -97 56 -331 0 -149 -4 -224
-14 -258 -38 -130 -189 -148 -244 -29 -21 44 -22 62 -22 292 0 235 1 247 23
287 29 55 64 74 125 70 35 -3 55 -11 76 -31z"/>
<path d="M6055 4269 c-104 -166 -200 -318 -213 -339 -20 -34 -22 -46 -16 -99
l7 -61 208 0 209 0 0 -110 0 -110 100 0 100 0 0 110 0 110 55 0 55 0 0 80 0
80 -55 0 -55 0 0 320 0 320 -102 0 -103 0 -190 -301z m192 -336 c-3 -2 -54 -2
-114 -1 l-110 3 111 178 111 177 3 -176 c1 -97 1 -179 -1 -181z"/>
<path d="M7705 4269 c-104 -166 -200 -318 -213 -339 -20 -34 -22 -46 -16 -99
l7 -61 208 0 209 0 0 -110 0 -110 100 0 100 0 0 110 0 110 55 0 55 0 0 80 0
80 -55 0 -55 0 0 320 0 320 -102 0 -103 0 -190 -301z m192 -336 c-3 -2 -54 -2
-114 -1 l-110 3 111 178 111 177 3 -176 c1 -97 1 -179 -1 -181z"/>
</g>
</svg>
