<svg width="705" height="386" viewBox="0 0 705 386" fill="none" xmlns="http://www.w3.org/2000/svg">
<path d="M274.27 2.88436C274.27 3.92972 275.096 4.77716 276.114 4.77716C277.132 4.77716 277.957 3.92972 277.957 2.88436C277.957 1.839 277.132 0.991562 276.114 0.991562C275.096 0.991562 274.27 1.839 274.27 2.88436Z" fill="#7186F5"/>
<path d="M274.27 16.1064C274.27 17.1518 275.096 17.9992 276.114 17.9992C277.132 17.9992 277.957 17.1518 277.957 16.1064C277.957 15.061 277.132 14.2136 276.114 14.2136C275.096 14.2136 274.27 15.061 274.27 16.1064Z" fill="#7186F5"/>
<path d="M274.27 29.3164C274.27 30.3618 275.096 31.2092 276.114 31.2092C277.132 31.2092 277.957 30.3618 277.957 29.3164C277.957 28.2711 277.132 27.4236 276.114 27.4236C275.096 27.4236 274.27 28.2711 274.27 29.3164Z" fill="#7186F5"/>
<path d="M274.27 42.5366C274.27 43.582 275.096 44.4294 276.114 44.4294C277.132 44.4294 277.957 43.582 277.957 42.5366C277.957 41.4912 277.132 40.6438 276.114 40.6438C275.096 40.6438 274.27 41.4912 274.27 42.5366Z" fill="#7186F5"/>
<path d="M274.27 55.7479C274.27 56.7933 275.096 57.6407 276.114 57.6407C277.132 57.6407 277.957 56.7933 277.957 55.7479C277.957 54.7026 277.132 53.8551 276.114 53.8551C275.096 53.8551 274.27 54.7026 274.27 55.7479Z" fill="#7186F5"/>
<path d="M274.27 68.9681C274.27 70.0134 275.096 70.8609 276.114 70.8609C277.132 70.8609 277.957 70.0134 277.957 68.9681C277.957 67.9227 277.132 67.0753 276.114 67.0753C275.096 67.0753 274.27 67.9227 274.27 68.9681Z" fill="#7186F5"/>
<path d="M261.404 2.88451C261.404 3.92988 262.23 4.77731 263.248 4.77731C264.266 4.77731 265.091 3.92988 265.091 2.88451C265.091 1.83915 264.266 0.991714 263.248 0.991714C262.23 0.991714 261.404 1.83915 261.404 2.88451Z" fill="#7186F5"/>
<path d="M261.404 16.1064C261.404 17.1518 262.23 17.9992 263.248 17.9992C264.266 17.9992 265.091 17.1518 265.091 16.1064C265.091 15.061 264.266 14.2136 263.248 14.2136C262.23 14.2136 261.404 15.061 261.404 16.1064Z" fill="#7186F5"/>
<path d="M261.404 29.3164C261.404 30.3618 262.23 31.2092 263.248 31.2092C264.266 31.2092 265.091 30.3618 265.091 29.3164C265.091 28.2711 264.266 27.4236 263.248 27.4236C262.23 27.4236 261.404 28.2711 261.404 29.3164Z" fill="#7186F5"/>
<path d="M261.404 42.5366C261.404 43.582 262.23 44.4294 263.248 44.4294C264.266 44.4294 265.091 43.582 265.091 42.5366C265.091 41.4912 264.266 40.6438 263.248 40.6438C262.23 40.6438 261.404 41.4912 261.404 42.5366Z" fill="#7186F5"/>
<path d="M261.404 55.7479C261.404 56.7933 262.23 57.6407 263.248 57.6407C264.266 57.6407 265.091 56.7933 265.091 55.7479C265.091 54.7026 264.266 53.8551 263.248 53.8551C262.23 53.8551 261.404 54.7026 261.404 55.7479Z" fill="#7186F5"/>
<path d="M261.404 68.9681C261.404 70.0134 262.23 70.8609 263.248 70.8609C264.266 70.8609 265.091 70.0134 265.091 68.9681C265.091 67.9227 264.266 67.0753 263.248 67.0753C262.23 67.0753 261.404 67.9227 261.404 68.9681Z" fill="#7186F5"/>
<path d="M248.529 2.88451C248.529 3.92988 249.354 4.77731 250.372 4.77731C251.39 4.77731 252.215 3.92988 252.215 2.88451C252.215 1.83915 251.39 0.991714 250.372 0.991714C249.354 0.991714 248.529 1.83915 248.529 2.88451Z" fill="#7186F5"/>
<path d="M248.529 16.1064C248.529 17.1518 249.354 17.9992 250.372 17.9992C251.39 17.9992 252.215 17.1518 252.215 16.1064C252.215 15.061 251.39 14.2136 250.372 14.2136C249.354 14.2136 248.529 15.061 248.529 16.1064Z" fill="#7186F5"/>
<path d="M248.529 29.3164C248.529 30.3618 249.354 31.2092 250.372 31.2092C251.39 31.2092 252.215 30.3618 252.215 29.3164C252.215 28.2711 251.39 27.4236 250.372 27.4236C249.354 27.4236 248.529 28.2711 248.529 29.3164Z" fill="#7186F5"/>
<path d="M248.529 42.5366C248.529 43.582 249.354 44.4294 250.372 44.4294C251.39 44.4294 252.215 43.582 252.215 42.5366C252.215 41.4912 251.39 40.6438 250.372 40.6438C249.354 40.6438 248.529 41.4912 248.529 42.5366Z" fill="#7186F5"/>
<path d="M248.529 55.7479C248.529 56.7933 249.354 57.6407 250.372 57.6407C251.39 57.6407 252.215 56.7933 252.215 55.7479C252.215 54.7026 251.39 53.8551 250.372 53.8551C249.354 53.8551 248.529 54.7026 248.529 55.7479Z" fill="#7186F5"/>
<path d="M248.529 68.9681C248.529 70.0134 249.354 70.8609 250.372 70.8609C251.39 70.8609 252.215 70.0134 252.215 68.9681C252.215 67.9227 251.39 67.0753 250.372 67.0753C249.354 67.0753 248.529 67.9227 248.529 68.9681Z" fill="#7186F5"/>
<path d="M235.663 2.88451C235.663 3.92988 236.488 4.77731 237.506 4.77731C238.524 4.77731 239.349 3.92988 239.349 2.88451C239.349 1.83915 238.524 0.991714 237.506 0.991714C236.488 0.991714 235.663 1.83915 235.663 2.88451Z" fill="#7186F5"/>
<path d="M235.663 16.1064C235.663 17.1518 236.488 17.9992 237.506 17.9992C238.524 17.9992 239.349 17.1518 239.349 16.1064C239.349 15.061 238.524 14.2136 237.506 14.2136C236.488 14.2136 235.663 15.061 235.663 16.1064Z" fill="#7186F5"/>
<path d="M235.663 29.3165C235.663 30.3618 236.488 31.2093 237.506 31.2093C238.524 31.2093 239.349 30.3618 239.349 29.3165C239.349 28.2711 238.524 27.4237 237.506 27.4237C236.488 27.4237 235.663 28.2711 235.663 29.3165Z" fill="#7186F5"/>
<path d="M235.663 42.5366C235.663 43.582 236.488 44.4294 237.506 44.4294C238.524 44.4294 239.349 43.582 239.349 42.5366C239.349 41.4913 238.524 40.6438 237.506 40.6438C236.488 40.6438 235.663 41.4913 235.663 42.5366Z" fill="#7186F5"/>
<path d="M235.663 55.7479C235.663 56.7933 236.488 57.6407 237.506 57.6407C238.524 57.6407 239.349 56.7933 239.349 55.7479C239.349 54.7026 238.524 53.8551 237.506 53.8551C236.488 53.8551 235.663 54.7026 235.663 55.7479Z" fill="#7186F5"/>
<path d="M235.663 68.9681C235.663 70.0134 236.488 70.8609 237.506 70.8609C238.524 70.8609 239.349 70.0134 239.349 68.9681C239.349 67.9227 238.524 67.0753 237.506 67.0753C236.488 67.0753 235.663 67.9227 235.663 68.9681Z" fill="#7186F5"/>
<path d="M401.658 205.465C401.658 206.511 402.484 207.358 403.502 207.358C404.52 207.358 405.345 206.511 405.345 205.465C405.345 204.42 404.52 203.573 403.502 203.573C402.484 203.573 401.658 204.42 401.658 205.465Z" fill="#7186F5"/>
<path d="M401.658 218.687C401.658 219.733 402.484 220.58 403.502 220.58C404.52 220.58 405.345 219.733 405.345 218.687C405.345 217.642 404.52 216.795 403.502 216.795C402.484 216.795 401.658 217.642 401.658 218.687Z" fill="#7186F5"/>
<path d="M401.658 231.897C401.658 232.943 402.484 233.79 403.502 233.79C404.52 233.79 405.345 232.943 405.345 231.897C405.345 230.852 404.52 230.005 403.502 230.005C402.484 230.005 401.658 230.852 401.658 231.897Z" fill="#7186F5"/>
<path d="M401.658 245.118C401.658 246.163 402.484 247.01 403.502 247.01C404.52 247.01 405.345 246.163 405.345 245.118C405.345 244.072 404.52 243.225 403.502 243.225C402.484 243.225 401.658 244.072 401.658 245.118Z" fill="#7186F5"/>
<path d="M401.658 258.329C401.658 259.374 402.484 260.222 403.502 260.222C404.52 260.222 405.345 259.374 405.345 258.329C405.345 257.284 404.52 256.436 403.502 256.436C402.484 256.436 401.658 257.284 401.658 258.329Z" fill="#7186F5"/>
<path d="M401.658 271.549C401.658 272.594 402.484 273.442 403.502 273.442C404.52 273.442 405.345 272.594 405.345 271.549C405.345 270.504 404.52 269.656 403.502 269.656C402.484 269.656 401.658 270.504 401.658 271.549Z" fill="#7186F5"/>
<path d="M388.792 205.465C388.792 206.511 389.617 207.358 390.635 207.358C391.653 207.358 392.479 206.511 392.479 205.465C392.479 204.42 391.653 203.573 390.635 203.573C389.617 203.573 388.792 204.42 388.792 205.465Z" fill="#7186F5"/>
<path d="M388.792 218.687C388.792 219.733 389.617 220.58 390.635 220.58C391.653 220.58 392.479 219.733 392.479 218.687C392.479 217.642 391.653 216.795 390.635 216.795C389.617 216.795 388.792 217.642 388.792 218.687Z" fill="#7186F5"/>
<path d="M388.792 231.897C388.792 232.943 389.617 233.79 390.635 233.79C391.653 233.79 392.479 232.943 392.479 231.897C392.479 230.852 391.653 230.005 390.635 230.005C389.617 230.005 388.792 230.852 388.792 231.897Z" fill="#7186F5"/>
<path d="M388.792 245.118C388.792 246.163 389.617 247.01 390.635 247.01C391.653 247.01 392.479 246.163 392.479 245.118C392.479 244.072 391.653 243.225 390.635 243.225C389.617 243.225 388.792 244.072 388.792 245.118Z" fill="#7186F5"/>
<path d="M388.792 258.329C388.792 259.374 389.617 260.222 390.635 260.222C391.653 260.222 392.479 259.374 392.479 258.329C392.479 257.284 391.653 256.436 390.635 256.436C389.617 256.436 388.792 257.284 388.792 258.329Z" fill="#7186F5"/>
<path d="M388.792 271.549C388.792 272.594 389.617 273.442 390.635 273.442C391.653 273.442 392.479 272.594 392.479 271.549C392.479 270.504 391.653 269.656 390.635 269.656C389.617 269.656 388.792 270.504 388.792 271.549Z" fill="#7186F5"/>
<path d="M375.916 205.465C375.916 206.511 376.742 207.358 377.76 207.358C378.778 207.358 379.603 206.511 379.603 205.465C379.603 204.42 378.778 203.573 377.76 203.573C376.742 203.573 375.916 204.42 375.916 205.465Z" fill="#7186F5"/>
<path d="M375.916 218.687C375.916 219.733 376.742 220.58 377.76 220.58C378.778 220.58 379.603 219.733 379.603 218.687C379.603 217.642 378.778 216.795 377.76 216.795C376.742 216.795 375.916 217.642 375.916 218.687Z" fill="#7186F5"/>
<path d="M375.916 231.897C375.916 232.943 376.742 233.79 377.76 233.79C378.778 233.79 379.603 232.943 379.603 231.897C379.603 230.852 378.778 230.005 377.76 230.005C376.742 230.005 375.916 230.852 375.916 231.897Z" fill="#7186F5"/>
<path d="M375.917 245.118C375.917 246.163 376.742 247.01 377.76 247.01C378.778 247.01 379.603 246.163 379.603 245.118C379.603 244.072 378.778 243.225 377.76 243.225C376.742 243.225 375.917 244.072 375.917 245.118Z" fill="#7186F5"/>
<path d="M375.916 258.329C375.916 259.374 376.742 260.222 377.76 260.222C378.778 260.222 379.603 259.374 379.603 258.329C379.603 257.284 378.778 256.436 377.76 256.436C376.742 256.436 375.916 257.284 375.916 258.329Z" fill="#7186F5"/>
<path d="M375.916 271.549C375.916 272.594 376.742 273.442 377.76 273.442C378.778 273.442 379.603 272.594 379.603 271.549C379.603 270.504 378.778 269.656 377.76 269.656C376.742 269.656 375.916 270.504 375.916 271.549Z" fill="#7186F5"/>
<path d="M363.051 205.465C363.051 206.511 363.876 207.358 364.894 207.358C365.912 207.358 366.737 206.511 366.737 205.465C366.737 204.42 365.912 203.573 364.894 203.573C363.876 203.573 363.051 204.42 363.051 205.465Z" fill="#7186F5"/>
<path d="M363.051 218.687C363.051 219.733 363.876 220.58 364.894 220.58C365.912 220.58 366.737 219.733 366.737 218.687C366.737 217.642 365.912 216.795 364.894 216.795C363.876 216.795 363.051 217.642 363.051 218.687Z" fill="#7186F5"/>
<path d="M363.051 231.897C363.051 232.943 363.876 233.79 364.894 233.79C365.912 233.79 366.737 232.943 366.737 231.897C366.737 230.852 365.912 230.005 364.894 230.005C363.876 230.005 363.051 230.852 363.051 231.897Z" fill="#7186F5"/>
<path d="M363.051 245.118C363.051 246.163 363.876 247.01 364.894 247.01C365.912 247.01 366.737 246.163 366.737 245.118C366.737 244.072 365.912 243.225 364.894 243.225C363.876 243.225 363.051 244.072 363.051 245.118Z" fill="#7186F5"/>
<path d="M363.051 258.329C363.051 259.374 363.876 260.222 364.894 260.222C365.912 260.222 366.737 259.374 366.737 258.329C366.737 257.284 365.912 256.436 364.894 256.436C363.876 256.436 363.051 257.284 363.051 258.329Z" fill="#7186F5"/>
<path d="M363.051 271.549C363.051 272.594 363.876 273.442 364.894 273.442C365.912 273.442 366.737 272.594 366.737 271.549C366.737 270.504 365.912 269.656 364.894 269.656C363.876 269.656 363.051 270.504 363.051 271.549Z" fill="#7186F5"/>
<path d="M293.791 317.488C293.791 318.534 294.616 319.381 295.634 319.381C296.652 319.381 297.477 318.534 297.477 317.488C297.477 316.443 296.652 315.595 295.634 315.595C294.616 315.595 293.791 316.443 293.791 317.488Z" fill="#7186F5"/>
<path d="M293.791 330.71C293.791 331.756 294.616 332.603 295.634 332.603C296.652 332.603 297.477 331.756 297.477 330.71C297.477 329.665 296.652 328.817 295.634 328.817C294.616 328.817 293.791 329.665 293.791 330.71Z" fill="#7186F5"/>
<path d="M293.791 343.92C293.791 344.966 294.616 345.813 295.634 345.813C296.652 345.813 297.477 344.966 297.477 343.92C297.477 342.875 296.652 342.028 295.634 342.028C294.616 342.028 293.791 342.875 293.791 343.92Z" fill="#7186F5"/>
<path d="M293.791 357.14C293.791 358.186 294.616 359.033 295.634 359.033C296.652 359.033 297.477 358.186 297.477 357.14C297.477 356.095 296.652 355.248 295.634 355.248C294.616 355.248 293.791 356.095 293.791 357.14Z" fill="#7186F5"/>
<path d="M293.791 370.352C293.791 371.397 294.616 372.245 295.634 372.245C296.652 372.245 297.477 371.397 297.477 370.352C297.477 369.306 296.652 368.459 295.634 368.459C294.616 368.459 293.791 369.306 293.791 370.352Z" fill="#7186F5"/>
<path d="M293.791 383.572C293.791 384.617 294.616 385.465 295.634 385.465C296.652 385.465 297.477 384.617 297.477 383.572C297.477 382.527 296.652 381.679 295.634 381.679C294.616 381.679 293.791 382.527 293.791 383.572Z" fill="#7186F5"/>
<path d="M280.925 317.488C280.925 318.534 281.75 319.381 282.768 319.381C283.786 319.381 284.611 318.534 284.611 317.488C284.611 316.443 283.786 315.596 282.768 315.596C281.75 315.596 280.925 316.443 280.925 317.488Z" fill="#7186F5"/>
<path d="M280.925 330.71C280.925 331.756 281.75 332.603 282.768 332.603C283.786 332.603 284.611 331.756 284.611 330.71C284.611 329.665 283.786 328.817 282.768 328.817C281.75 328.817 280.925 329.665 280.925 330.71Z" fill="#7186F5"/>
<path d="M280.925 343.92C280.925 344.966 281.75 345.813 282.768 345.813C283.786 345.813 284.611 344.966 284.611 343.92C284.611 342.875 283.786 342.028 282.768 342.028C281.75 342.028 280.925 342.875 280.925 343.92Z" fill="#7186F5"/>
<path d="M280.925 357.14C280.925 358.186 281.75 359.033 282.768 359.033C283.786 359.033 284.611 358.186 284.611 357.14C284.611 356.095 283.786 355.248 282.768 355.248C281.75 355.248 280.925 356.095 280.925 357.14Z" fill="#7186F5"/>
<path d="M280.925 370.352C280.925 371.397 281.75 372.245 282.768 372.245C283.786 372.245 284.611 371.397 284.611 370.352C284.611 369.306 283.786 368.459 282.768 368.459C281.75 368.459 280.925 369.306 280.925 370.352Z" fill="#7186F5"/>
<path d="M280.925 383.572C280.925 384.617 281.75 385.465 282.768 385.465C283.786 385.465 284.611 384.617 284.611 383.572C284.611 382.527 283.786 381.679 282.768 381.679C281.75 381.679 280.925 382.527 280.925 383.572Z" fill="#7186F5"/>
<path d="M268.049 317.488C268.049 318.534 268.874 319.381 269.892 319.381C270.91 319.381 271.736 318.534 271.736 317.488C271.736 316.443 270.91 315.596 269.892 315.596C268.874 315.596 268.049 316.443 268.049 317.488Z" fill="#7186F5"/>
<path d="M268.049 330.71C268.049 331.756 268.874 332.603 269.892 332.603C270.91 332.603 271.736 331.756 271.736 330.71C271.736 329.665 270.91 328.817 269.892 328.817C268.874 328.817 268.049 329.665 268.049 330.71Z" fill="#7186F5"/>
<path d="M268.049 343.92C268.049 344.966 268.874 345.813 269.892 345.813C270.91 345.813 271.736 344.966 271.736 343.92C271.736 342.875 270.91 342.028 269.892 342.028C268.874 342.028 268.049 342.875 268.049 343.92Z" fill="#7186F5"/>
<path d="M268.049 357.14C268.049 358.186 268.874 359.033 269.892 359.033C270.91 359.033 271.736 358.186 271.736 357.14C271.736 356.095 270.91 355.248 269.892 355.248C268.874 355.248 268.049 356.095 268.049 357.14Z" fill="#7186F5"/>
<path d="M268.049 370.352C268.049 371.397 268.874 372.245 269.892 372.245C270.91 372.245 271.736 371.397 271.736 370.352C271.736 369.306 270.91 368.459 269.892 368.459C268.874 368.459 268.049 369.306 268.049 370.352Z" fill="#7186F5"/>
<path d="M268.049 383.572C268.049 384.617 268.874 385.465 269.892 385.465C270.91 385.465 271.736 384.617 271.736 383.572C271.736 382.527 270.91 381.679 269.892 381.679C268.874 381.679 268.049 382.527 268.049 383.572Z" fill="#7186F5"/>
<path d="M255.183 317.488C255.183 318.534 256.009 319.381 257.027 319.381C258.045 319.381 258.87 318.534 258.87 317.488C258.87 316.443 258.045 315.596 257.027 315.596C256.009 315.596 255.183 316.443 255.183 317.488Z" fill="#7186F5"/>
<path d="M255.183 330.71C255.183 331.756 256.009 332.603 257.027 332.603C258.045 332.603 258.87 331.756 258.87 330.71C258.87 329.665 258.045 328.817 257.027 328.817C256.009 328.817 255.183 329.665 255.183 330.71Z" fill="#7186F5"/>
<path d="M255.183 343.92C255.183 344.966 256.009 345.813 257.027 345.813C258.045 345.813 258.87 344.966 258.87 343.92C258.87 342.875 258.045 342.028 257.027 342.028C256.009 342.028 255.183 342.875 255.183 343.92Z" fill="#7186F5"/>
<path d="M255.183 357.141C255.183 358.186 256.009 359.033 257.027 359.033C258.045 359.033 258.87 358.186 258.87 357.141C258.87 356.095 258.045 355.248 257.027 355.248C256.009 355.248 255.183 356.095 255.183 357.141Z" fill="#7186F5"/>
<path d="M255.183 370.352C255.183 371.397 256.009 372.245 257.027 372.245C258.045 372.245 258.87 371.397 258.87 370.352C258.87 369.306 258.045 368.459 257.027 368.459C256.009 368.459 255.183 369.306 255.183 370.352Z" fill="#7186F5"/>
<path d="M255.183 383.572C255.183 384.617 256.009 385.465 257.027 385.465C258.045 385.465 258.87 384.617 258.87 383.572C258.87 382.527 258.045 381.679 257.027 381.679C256.009 381.679 255.183 382.527 255.183 383.572Z" fill="#7186F5"/>
<path d="M38.6075 206.738C38.6075 207.784 39.4327 208.631 40.4507 208.631C41.4687 208.631 42.294 207.784 42.294 206.738C42.294 205.693 41.4687 204.846 40.4507 204.846C39.4327 204.846 38.6075 205.693 38.6075 206.738Z" fill="#7186F5"/>
<path d="M38.6075 219.96C38.6075 221.006 39.4327 221.853 40.4507 221.853C41.4687 221.853 42.294 221.006 42.294 219.96C42.294 218.915 41.4687 218.068 40.4507 218.068C39.4327 218.068 38.6075 218.915 38.6075 219.96Z" fill="#7186F5"/>
<path d="M38.6075 233.17C38.6075 234.216 39.4327 235.063 40.4507 235.063C41.4687 235.063 42.294 234.216 42.294 233.17C42.294 232.125 41.4687 231.278 40.4507 231.278C39.4327 231.278 38.6075 232.125 38.6075 233.17Z" fill="#7186F5"/>
<path d="M38.6075 246.391C38.6075 247.436 39.4327 248.283 40.4507 248.283C41.4687 248.283 42.294 247.436 42.294 246.391C42.294 245.345 41.4687 244.498 40.4507 244.498C39.4327 244.498 38.6075 245.345 38.6075 246.391Z" fill="#7186F5"/>
<path d="M38.6075 259.602C38.6075 260.647 39.4327 261.495 40.4507 261.495C41.4687 261.495 42.294 260.647 42.294 259.602C42.294 258.557 41.4687 257.709 40.4507 257.709C39.4327 257.709 38.6075 258.557 38.6075 259.602Z" fill="#7186F5"/>
<path d="M38.6075 272.822C38.6075 273.867 39.4327 274.715 40.4507 274.715C41.4687 274.715 42.294 273.867 42.294 272.822C42.294 271.777 41.4687 270.929 40.4507 270.929C39.4327 270.929 38.6075 271.777 38.6075 272.822Z" fill="#7186F5"/>
<path d="M25.7414 206.738C25.7414 207.784 26.5666 208.631 27.5846 208.631C28.6027 208.631 29.4279 207.784 29.4279 206.738C29.4279 205.693 28.6027 204.846 27.5846 204.846C26.5666 204.846 25.7414 205.693 25.7414 206.738Z" fill="#7186F5"/>
<path d="M25.7414 219.96C25.7414 221.006 26.5666 221.853 27.5846 221.853C28.6027 221.853 29.4279 221.006 29.4279 219.96C29.4279 218.915 28.6027 218.068 27.5846 218.068C26.5666 218.068 25.7414 218.915 25.7414 219.96Z" fill="#7186F5"/>
<path d="M25.7414 233.17C25.7414 234.216 26.5666 235.063 27.5846 235.063C28.6027 235.063 29.4279 234.216 29.4279 233.17C29.4279 232.125 28.6027 231.278 27.5846 231.278C26.5666 231.278 25.7414 232.125 25.7414 233.17Z" fill="#7186F5"/>
<path d="M25.7414 246.391C25.7414 247.436 26.5666 248.283 27.5846 248.283C28.6027 248.283 29.4279 247.436 29.4279 246.391C29.4279 245.345 28.6027 244.498 27.5846 244.498C26.5666 244.498 25.7414 245.345 25.7414 246.391Z" fill="#7186F5"/>
<path d="M25.7414 259.602C25.7414 260.647 26.5666 261.495 27.5846 261.495C28.6027 261.495 29.4279 260.647 29.4279 259.602C29.4279 258.557 28.6027 257.709 27.5846 257.709C26.5666 257.709 25.7414 258.557 25.7414 259.602Z" fill="#7186F5"/>
<path d="M25.7414 272.822C25.7414 273.867 26.5666 274.715 27.5846 274.715C28.6027 274.715 29.4279 273.867 29.4279 272.822C29.4279 271.777 28.6027 270.929 27.5846 270.929C26.5666 270.929 25.7414 271.777 25.7414 272.822Z" fill="#7186F5"/>
<path d="M12.8657 206.738C12.8657 207.784 13.691 208.631 14.709 208.631C15.727 208.631 16.5522 207.784 16.5522 206.738C16.5522 205.693 15.727 204.846 14.709 204.846C13.691 204.846 12.8657 205.693 12.8657 206.738Z" fill="#7186F5"/>
<path d="M12.8657 219.96C12.8657 221.006 13.6909 221.853 14.709 221.853C15.727 221.853 16.5522 221.006 16.5522 219.96C16.5522 218.915 15.727 218.068 14.709 218.068C13.691 218.068 12.8657 218.915 12.8657 219.96Z" fill="#7186F5"/>
<path d="M12.8657 233.17C12.8657 234.216 13.691 235.063 14.709 235.063C15.727 235.063 16.5522 234.216 16.5522 233.17C16.5522 232.125 15.727 231.278 14.709 231.278C13.691 231.278 12.8657 232.125 12.8657 233.17Z" fill="#7186F5"/>
<path d="M12.8658 246.391C12.8658 247.436 13.691 248.283 14.709 248.283C15.727 248.283 16.5523 247.436 16.5523 246.391C16.5523 245.345 15.727 244.498 14.709 244.498C13.691 244.498 12.8658 245.345 12.8658 246.391Z" fill="#7186F5"/>
<path d="M12.8657 259.602C12.8657 260.647 13.691 261.495 14.709 261.495C15.727 261.495 16.5522 260.647 16.5522 259.602C16.5522 258.557 15.727 257.709 14.709 257.709C13.691 257.709 12.8657 258.557 12.8657 259.602Z" fill="#7186F5"/>
<path d="M12.8657 272.822C12.8657 273.867 13.6909 274.715 14.709 274.715C15.727 274.715 16.5522 273.867 16.5522 272.822C16.5522 271.777 15.727 270.929 14.709 270.929C13.691 270.929 12.8657 271.777 12.8657 272.822Z" fill="#7186F5"/>
<path d="M-3.01194e-05 206.738C-3.01628e-05 207.784 0.825235 208.631 1.84325 208.631C2.86126 208.631 3.68652 207.784 3.68652 206.738C3.68652 205.693 2.86126 204.846 1.84325 204.846C0.825236 204.846 -3.0076e-05 205.693 -3.01194e-05 206.738Z" fill="#7186F5"/>
<path d="M-3.05962e-05 219.96C-3.06397e-05 221.006 0.825235 221.853 1.84325 221.853C2.86126 221.853 3.68652 221.006 3.68652 219.96C3.68652 218.915 2.86126 218.068 1.84325 218.068C0.825235 218.068 -3.05528e-05 218.915 -3.05962e-05 219.96Z" fill="#7186F5"/>
<path d="M-2.82121e-05 233.17C-2.82555e-05 234.216 0.825237 235.063 1.84325 235.063C2.86126 235.063 3.68652 234.216 3.68652 233.17C3.68652 232.125 2.86126 231.278 1.84325 231.278C0.825237 231.278 -2.81686e-05 232.125 -2.82121e-05 233.17Z" fill="#7186F5"/>
<path d="M-3.05962e-05 246.391C-3.06397e-05 247.436 0.825235 248.283 1.84325 248.283C2.86126 248.283 3.68652 247.436 3.68652 246.391C3.68652 245.345 2.86126 244.498 1.84325 244.498C0.825235 244.498 -3.05528e-05 245.345 -3.05962e-05 246.391Z" fill="#7186F5"/>
<path d="M-2.96426e-05 259.602C-2.9686e-05 260.647 0.825236 261.495 1.84325 261.495C2.86126 261.495 3.68652 260.647 3.68652 259.602C3.68652 258.557 2.86126 257.709 1.84325 257.709C0.825236 257.709 -2.95991e-05 258.557 -2.96426e-05 259.602Z" fill="#7186F5"/>
<path d="M-2.89273e-05 272.822C-2.89708e-05 273.867 0.825236 274.715 1.84325 274.715C2.86126 274.715 3.68652 273.867 3.68652 272.822C3.68652 271.777 2.86126 270.929 1.84325 270.929C0.825237 270.929 -2.88839e-05 271.777 -2.89273e-05 272.822Z" fill="#7186F5"/>
<path d="M281.835 188.128V313.317C281.835 317.093 277.901 320.15 273.04 320.15H30.4105C28.2286 320.15 26.2276 319.535 24.6901 318.507C22.8135 317.252 21.6151 315.398 21.6151 313.317V188.128C21.6151 184.352 25.5606 181.295 30.4105 181.295H273.04C275.222 181.295 277.234 181.91 278.76 182.938C280.648 184.194 281.835 186.047 281.835 188.128Z" fill="#E6E6F0"/>
<path d="M154.303 333.587H24.8144C23.0508 333.587 21.6263 332.481 21.6263 331.111C21.6263 329.741 23.0508 328.634 24.8144 328.634H154.303C156.066 328.634 157.491 329.741 157.491 331.111C157.491 332.472 156.066 333.587 154.303 333.587Z" fill="#E6E6F0"/>
<path d="M161.776 356.826H24.9422C23.0786 356.826 21.5734 355.752 21.5734 354.423V344.802C21.5734 343.472 23.0786 342.398 24.9422 342.398H161.776C163.64 342.398 165.145 343.472 165.145 344.802V354.423C165.145 355.752 163.64 356.826 161.776 356.826Z" fill="#E6E6F0"/>
<path d="M250.169 333.587H278.646C280.41 333.587 281.834 332.481 281.834 331.111C281.834 329.741 280.41 328.634 278.646 328.634H250.169C248.405 328.634 246.981 329.741 246.981 331.111C246.981 332.472 248.405 333.587 250.169 333.587Z" fill="#E6E6F0"/>
<path d="M201.862 333.587H230.34C232.103 333.587 233.528 332.481 233.528 331.111C233.528 329.741 232.103 328.634 230.34 328.634H201.862C200.099 328.634 198.674 329.741 198.674 331.111C198.663 332.472 200.099 333.587 201.862 333.587Z" fill="#E6E6F0"/>
<path d="M222.166 356.932H278.646C280.41 356.932 281.834 355.825 281.834 354.455V344.539C281.834 343.169 280.41 342.063 278.646 342.063H222.166C220.403 342.063 218.978 343.169 218.978 344.539V354.455C218.978 355.825 220.403 356.932 222.166 356.932Z" fill="#E6E6F0"/>
<path d="M278.76 182.938L24.6901 318.507C22.8135 317.252 21.6151 315.398 21.6151 313.317V188.128C21.6151 184.352 25.5606 181.295 30.4105 181.295H273.04C275.222 181.295 277.234 181.91 278.76 182.938Z" fill="#F2F2FA"/>
<path d="M33.0854 98.32C30.5788 98.32 28.5654 97.5333 27.0454 95.96C25.5521 94.3867 24.8054 92.2267 24.8054 89.48V73.64C24.8054 70.2267 25.4854 67.6533 26.8454 65.92C28.2054 64.1867 30.3388 63.32 33.2454 63.32C35.7788 63.32 37.8188 64.0133 39.3654 65.4C40.9121 66.7867 41.6854 68.7867 41.6854 71.4V77.32H34.8454V72.24C34.8454 71.2533 34.7254 70.5733 34.4854 70.2C34.2454 69.8267 33.8321 69.64 33.2454 69.64C32.6321 69.64 32.2054 69.8533 31.9654 70.28C31.7521 70.7067 31.6454 71.3333 31.6454 72.16V89.4C31.6454 90.3067 31.7788 90.9733 32.0454 91.4C32.3121 91.8 32.7121 92 33.2454 92C34.3121 92 34.8454 91.1333 34.8454 89.4V83.2H41.7654V89.68C41.7654 95.44 38.8721 98.32 33.0854 98.32ZM45.9107 68.72H52.9107V71.96C53.2574 70.8133 53.8574 69.9333 54.7107 69.32C55.5907 68.68 56.6707 68.36 57.9507 68.36V74.2C56.9641 74.2 55.8707 74.3467 54.6707 74.64C53.4974 74.9067 52.9107 75.2267 52.9107 75.6V98H45.9107V68.72ZM61.6207 66.76V61.88H68.6207V66.76H61.6207ZM61.6207 98V68.72H68.6207V98H61.6207ZM78.7073 98.32C76.4406 98.32 74.8806 97.5733 74.0273 96.08C73.2006 94.56 72.7873 92.4 72.7873 89.6C72.7873 87.3067 73.0806 85.5467 73.6673 84.32C74.2806 83.0933 75.1206 82.2 76.1873 81.64C77.254 81.0533 78.8806 80.4133 81.0673 79.72L82.9873 79.08V79V76.08C82.9873 75.3067 82.8273 74.72 82.5073 74.32C82.214 73.8933 81.854 73.68 81.4273 73.68C81.054 73.68 80.7206 73.8533 80.4273 74.2C80.1606 74.5467 80.0273 75.0133 80.0273 75.6V77.36H73.2273V76.4C73.2273 73.52 73.894 71.4667 75.2273 70.24C76.5873 69.0133 78.7873 68.4 81.8273 68.4C84.254 68.4 86.2273 69.04 87.7473 70.32C89.2673 71.5733 90.0273 73.36 90.0273 75.68V98H83.0673V94.52C82.7206 95.72 82.1606 96.6533 81.3873 97.32C80.6406 97.9867 79.7473 98.32 78.7073 98.32ZM81.4673 92.88C82.0006 92.88 82.374 92.6667 82.5873 92.24C82.8273 91.7867 82.9473 91.24 82.9473 90.6V82.44C81.9073 82.84 81.134 83.3467 80.6273 83.96C80.1473 84.5733 79.9073 85.4267 79.9073 86.52V90.28C79.9073 92.0133 80.4273 92.88 81.4673 92.88ZM100.483 98.32C98.7766 98.32 97.4832 97.92 96.6032 97.12C95.7499 96.2933 95.1766 95.2133 94.8832 93.88C94.6166 92.52 94.4832 90.7867 94.4832 88.68L94.5632 75.48C94.5632 73.4 95.0832 71.7067 96.1232 70.4C97.1899 69.0667 98.6832 68.4 100.603 68.4C102.497 68.4 103.91 69.0267 104.843 70.28V63.44H111.843V98H104.843V94.88C104.443 96.0267 103.897 96.8933 103.203 97.48C102.537 98.04 101.63 98.32 100.483 98.32ZM103.163 92.84C103.857 92.84 104.31 92.5067 104.523 91.84C104.737 91.1467 104.843 90.2267 104.843 89.08V87.84V76.84C104.843 75.9867 104.723 75.2667 104.483 74.68C104.243 74.0933 103.817 73.8 103.203 73.8C102.51 73.8 102.043 74.08 101.803 74.64C101.59 75.1733 101.483 75.9067 101.483 76.84V89.16C101.483 91.6133 102.043 92.84 103.163 92.84ZM125.165 98.32C119.325 98.32 116.405 95.2933 116.405 89.24V77.48C116.405 74.7067 117.178 72.5067 118.725 70.88C120.298 69.2267 122.445 68.4 125.165 68.4C127.885 68.4 130.018 69.2267 131.565 70.88C133.138 72.5067 133.925 74.7067 133.925 77.48V89.24C133.925 95.2933 131.005 98.32 125.165 98.32ZM125.165 92.92C125.725 92.92 126.138 92.72 126.405 92.32C126.672 91.92 126.805 91.3733 126.805 90.68V76.36C126.805 74.6533 126.258 73.8 125.165 73.8C124.072 73.8 123.525 74.6533 123.525 76.36V90.68C123.525 91.3733 123.658 91.92 123.925 92.32C124.192 92.72 124.605 92.92 125.165 92.92ZM149.903 68.72H157.023V70.28C158.036 69.0267 159.436 68.4 161.223 68.4C163.49 68.4 165.063 69.16 165.943 70.68C166.85 72.2 167.303 74.3067 167.303 77V87.84C167.303 90.1333 167.17 92.0133 166.903 93.48C166.636 94.92 166.05 96.0933 165.143 97C164.236 97.88 162.863 98.32 161.023 98.32C159.263 98.32 157.93 97.8267 157.023 96.84V103.84H149.903V68.72ZM158.703 92.88C159.343 92.88 159.756 92.5867 159.943 92C160.13 91.4133 160.223 90.56 160.223 89.44V77C160.223 75.9867 160.13 75.2133 159.943 74.68C159.756 74.1467 159.33 73.88 158.663 73.88C157.57 73.88 157.023 74.8933 157.023 76.92V89.76C157.023 90.7467 157.13 91.52 157.343 92.08C157.583 92.6133 158.036 92.88 158.703 92.88ZM177.223 98.32C174.956 98.32 173.396 97.5733 172.543 96.08C171.716 94.56 171.303 92.4 171.303 89.6C171.303 87.3067 171.596 85.5467 172.183 84.32C172.796 83.0933 173.636 82.2 174.703 81.64C175.77 81.0533 177.396 80.4133 179.583 79.72L181.503 79.08V79V76.08C181.503 75.3067 181.343 74.72 181.023 74.32C180.73 73.8933 180.37 73.68 179.943 73.68C179.57 73.68 179.236 73.8533 178.943 74.2C178.676 74.5467 178.543 75.0133 178.543 75.6V77.36H171.743V76.4C171.743 73.52 172.41 71.4667 173.743 70.24C175.103 69.0133 177.303 68.4 180.343 68.4C182.77 68.4 184.743 69.04 186.263 70.32C187.783 71.5733 188.543 73.36 188.543 75.68V98H181.583V94.52C181.236 95.72 180.676 96.6533 179.903 97.32C179.156 97.9867 178.263 98.32 177.223 98.32ZM179.983 92.88C180.516 92.88 180.89 92.6667 181.103 92.24C181.343 91.7867 181.463 91.24 181.463 90.6V82.44C180.423 82.84 179.65 83.3467 179.143 83.96C178.663 84.5733 178.423 85.4267 178.423 86.52V90.28C178.423 92.0133 178.943 92.88 179.983 92.88ZM193.239 68.72H200.239V71.96C200.586 70.8133 201.186 69.9333 202.039 69.32C202.919 68.68 203.999 68.36 205.279 68.36V74.2C204.292 74.2 203.199 74.3467 201.999 74.64C200.826 74.9067 200.239 75.2267 200.239 75.6V98H193.239V68.72ZM214.309 98.32C212.042 98.32 210.482 97.5733 209.629 96.08C208.802 94.56 208.389 92.4 208.389 89.6C208.389 87.3067 208.682 85.5467 209.269 84.32C209.882 83.0933 210.722 82.2 211.789 81.64C212.856 81.0533 214.482 80.4133 216.669 79.72L218.589 79.08V79V76.08C218.589 75.3067 218.429 74.72 218.109 74.32C217.816 73.8933 217.456 73.68 217.029 73.68C216.656 73.68 216.322 73.8533 216.029 74.2C215.762 74.5467 215.629 75.0133 215.629 75.6V77.36H208.829V76.4C208.829 73.52 209.496 71.4667 210.829 70.24C212.189 69.0133 214.389 68.4 217.429 68.4C219.856 68.4 221.829 69.04 223.349 70.32C224.869 71.5733 225.629 73.36 225.629 75.68V98H218.669V94.52C218.322 95.72 217.762 96.6533 216.989 97.32C216.242 97.9867 215.349 98.32 214.309 98.32ZM217.069 92.88C217.602 92.88 217.976 92.6667 218.189 92.24C218.429 91.7867 218.549 91.24 218.549 90.6V82.44C217.509 82.84 216.736 83.3467 216.229 83.96C215.749 84.5733 215.509 85.4267 215.509 86.52V90.28C215.509 92.0133 216.029 92.88 217.069 92.88Z" fill="#FFFCFC"/>
<path d="M25.0854 156V121.64H38.8454V128.28H32.0854V134.96H38.5654V141.44H32.0854V149.32H39.2854V156H25.0854ZM51.4898 156.32C45.7031 156.32 42.8098 153.387 42.8098 147.52L42.8498 145.2H49.8498L49.8898 148.64C49.8898 149.333 50.0231 149.867 50.2898 150.24C50.5565 150.587 50.9965 150.76 51.6098 150.76C52.5431 150.76 53.0098 150 53.0098 148.48C53.0098 147.36 52.7831 146.48 52.3298 145.84C51.9031 145.2 51.2098 144.52 50.2498 143.8L46.5298 140.92C45.2498 139.933 44.3298 138.92 43.7698 137.88C43.2098 136.813 42.9298 135.32 42.9298 133.4C42.9298 131.907 43.3165 130.64 44.0898 129.6C44.8898 128.533 45.9431 127.733 47.2498 127.2C48.5565 126.667 50.0098 126.4 51.6098 126.4C57.2898 126.4 60.1298 129.227 60.1298 134.88V135.44H52.8898V134.32C52.8898 133.627 52.7698 133.04 52.5298 132.56C52.3165 132.053 51.9431 131.8 51.4098 131.8C50.9298 131.8 50.5565 131.947 50.2898 132.24C50.0498 132.507 49.9298 132.88 49.9298 133.36C49.9298 134.427 50.3431 135.253 51.1698 135.84L55.4898 139C57.0365 140.147 58.2231 141.4 59.0498 142.76C59.8765 144.093 60.2898 145.787 60.2898 147.84C60.2898 150.56 59.5165 152.653 57.9698 154.12C56.4231 155.587 54.2631 156.32 51.4898 156.32ZM70.4742 156.32C68.6342 156.32 67.3675 155.933 66.6742 155.16C65.9808 154.387 65.6342 153.147 65.6342 151.44V133.16H63.6742V127.84H65.6342V121.64H72.4342V127.84H74.4342V133.16H72.4342V149.6C72.4342 150.107 72.4742 150.48 72.5542 150.72C72.6342 150.96 72.8475 151.08 73.1942 151.08C73.4608 151.08 73.7142 151.067 73.9542 151.04C74.1942 151.013 74.3542 151 74.4342 151V155.8C74.0342 155.907 73.4475 156.013 72.6742 156.12C71.9275 156.253 71.1942 156.32 70.4742 156.32ZM84.2617 156.32C82.075 156.32 80.5683 155.667 79.7417 154.36C78.9417 153.053 78.5417 151.107 78.5417 148.52V126.72H85.5817V147.12C85.5817 147.307 85.5817 147.813 85.5817 148.64C85.5817 149.44 85.7017 150.013 85.9417 150.36C86.2083 150.68 86.6083 150.84 87.1417 150.84C87.8617 150.84 88.315 150.547 88.5017 149.96C88.6883 149.347 88.7817 148.48 88.7817 147.36V147.12L88.8217 126.72H95.7817V156H88.7817V152.88C88.3017 154.107 87.7417 154.987 87.1017 155.52C86.4617 156.053 85.515 156.32 84.2617 156.32ZM106.343 156.32C104.636 156.32 103.343 155.92 102.463 155.12C101.609 154.293 101.036 153.213 100.743 151.88C100.476 150.52 100.343 148.787 100.343 146.68L100.423 133.48C100.423 131.4 100.943 129.707 101.983 128.4C103.049 127.067 104.543 126.4 106.463 126.4C108.356 126.4 109.769 127.027 110.703 128.28V121.44H117.703V156H110.703V152.88C110.303 154.027 109.756 154.893 109.063 155.48C108.396 156.04 107.489 156.32 106.343 156.32ZM109.023 150.84C109.716 150.84 110.169 150.507 110.383 149.84C110.596 149.147 110.703 148.227 110.703 147.08V145.84V134.84C110.703 133.987 110.583 133.267 110.343 132.68C110.103 132.093 109.676 131.8 109.063 131.8C108.369 131.8 107.903 132.08 107.663 132.64C107.449 133.173 107.343 133.907 107.343 134.84V147.16C107.343 149.613 107.903 150.84 109.023 150.84ZM127.824 156.32C125.558 156.32 123.998 155.573 123.144 154.08C122.318 152.56 121.904 150.4 121.904 147.6C121.904 145.307 122.198 143.547 122.784 142.32C123.398 141.093 124.238 140.2 125.304 139.64C126.371 139.053 127.998 138.413 130.184 137.72L132.104 137.08V137V134.08C132.104 133.307 131.944 132.72 131.624 132.32C131.331 131.893 130.971 131.68 130.544 131.68C130.171 131.68 129.838 131.853 129.544 132.2C129.278 132.547 129.144 133.013 129.144 133.6V135.36H122.344V134.4C122.344 131.52 123.011 129.467 124.344 128.24C125.704 127.013 127.904 126.4 130.944 126.4C133.371 126.4 135.344 127.04 136.864 128.32C138.384 129.573 139.144 131.36 139.144 133.68V156H132.184V152.52C131.838 153.72 131.278 154.653 130.504 155.32C129.758 155.987 128.864 156.32 127.824 156.32ZM130.584 150.88C131.118 150.88 131.491 150.667 131.704 150.24C131.944 149.787 132.064 149.24 132.064 148.6V140.44C131.024 140.84 130.251 141.347 129.744 141.96C129.264 142.573 129.024 143.427 129.024 144.52V148.28C129.024 150.013 129.544 150.88 130.584 150.88ZM143.84 126.72H150.84V130.44C151.134 129.24 151.64 128.267 152.36 127.52C153.08 126.773 154.04 126.4 155.24 126.4C157.214 126.4 158.667 127.013 159.6 128.24C160.56 129.44 161.04 131.16 161.04 133.4V156H154.16V134.12C154.16 133.48 154.027 132.933 153.76 132.48C153.52 132.027 153.134 131.8 152.6 131.8C151.88 131.8 151.4 132.133 151.16 132.8C150.947 133.44 150.84 134.307 150.84 135.4V156H143.84V126.72ZM171.841 156.32C170.001 156.32 168.735 155.933 168.041 155.16C167.348 154.387 167.001 153.147 167.001 151.44V133.16H165.041V127.84H167.001V121.64H173.801V127.84H175.801V133.16H173.801V149.6C173.801 150.107 173.841 150.48 173.921 150.72C174.001 150.96 174.215 151.08 174.561 151.08C174.828 151.08 175.081 151.067 175.321 151.04C175.561 151.013 175.721 151 175.801 151V155.8C175.401 155.907 174.815 156.013 174.041 156.12C173.295 156.253 172.561 156.32 171.841 156.32ZM188.189 156.32C185.176 156.32 183.016 155.493 181.709 153.84C180.402 152.187 179.749 149.72 179.749 146.44V134.68C179.749 131.987 180.522 129.933 182.069 128.52C183.616 127.107 185.776 126.4 188.549 126.4C194.176 126.4 196.989 129.16 196.989 134.68V136.8C196.989 138.933 196.962 140.667 196.909 142H186.749V147.68C186.749 148.693 186.856 149.493 187.069 150.08C187.282 150.64 187.736 150.92 188.429 150.92C188.962 150.92 189.336 150.76 189.549 150.44C189.789 150.12 189.922 149.76 189.949 149.36C190.002 148.933 190.029 148.32 190.029 147.52V144.68H196.989V146.36C196.989 149.773 196.322 152.293 194.989 153.92C193.682 155.52 191.416 156.32 188.189 156.32ZM190.029 138.52V134.76C190.029 132.653 189.509 131.6 188.469 131.6C187.296 131.6 186.709 132.653 186.709 134.76V138.52H190.029ZM209.56 156.32C203.773 156.32 200.88 153.387 200.88 147.52L200.92 145.2H207.92L207.96 148.64C207.96 149.333 208.093 149.867 208.36 150.24C208.627 150.587 209.067 150.76 209.68 150.76C210.613 150.76 211.08 150 211.08 148.48C211.08 147.36 210.853 146.48 210.4 145.84C209.973 145.2 209.28 144.52 208.32 143.8L204.6 140.92C203.32 139.933 202.4 138.92 201.84 137.88C201.28 136.813 201 135.32 201 133.4C201 131.907 201.387 130.64 202.16 129.6C202.96 128.533 204.013 127.733 205.32 127.2C206.627 126.667 208.08 126.4 209.68 126.4C215.36 126.4 218.2 129.227 218.2 134.88V135.44H210.96V134.32C210.96 133.627 210.84 133.04 210.6 132.56C210.387 132.053 210.013 131.8 209.48 131.8C209 131.8 208.627 131.947 208.36 132.24C208.12 132.507 208 132.88 208 133.36C208 134.427 208.413 135.253 209.24 135.84L213.56 139C215.107 140.147 216.293 141.4 217.12 142.76C217.947 144.093 218.36 145.787 218.36 147.84C218.36 150.56 217.587 152.653 216.04 154.12C214.493 155.587 212.333 156.32 209.56 156.32ZM241.959 156.32C239.133 156.32 237.026 155.52 235.639 153.92C234.279 152.32 233.599 149.947 233.599 146.8V121.64H240.279V146.52C240.279 147.613 240.386 148.467 240.599 149.08C240.813 149.693 241.266 150 241.959 150C242.653 150 243.106 149.707 243.319 149.12C243.533 148.507 243.639 147.64 243.639 146.52V121.64H250.319V146.8C250.319 149.947 249.626 152.32 248.239 153.92C246.879 155.52 244.786 156.32 241.959 156.32ZM254.825 126.72H261.825V130.44C262.118 129.24 262.625 128.267 263.345 127.52C264.065 126.773 265.025 126.4 266.225 126.4C268.198 126.4 269.651 127.013 270.585 128.24C271.545 129.44 272.025 131.16 272.025 133.4V156H265.145V134.12C265.145 133.48 265.011 132.933 264.745 132.48C264.505 132.027 264.118 131.8 263.585 131.8C262.865 131.8 262.385 132.133 262.145 132.8C261.931 133.44 261.825 134.307 261.825 135.4V156H254.825V126.72ZM276.746 124.76V119.88H283.746V124.76H276.746ZM276.746 156V126.72H283.746V156H276.746ZM292.232 156L287.552 126.72H294.552L295.992 141.52L296.232 146.28L296.512 141.48L298.112 126.72H305.112L300.352 156H292.232ZM317.15 156.32C314.136 156.32 311.976 155.493 310.67 153.84C309.363 152.187 308.71 149.72 308.71 146.44V134.68C308.71 131.987 309.483 129.933 311.03 128.52C312.576 127.107 314.736 126.4 317.51 126.4C323.136 126.4 325.95 129.16 325.95 134.68V136.8C325.95 138.933 325.923 140.667 325.87 142H315.71V147.68C315.71 148.693 315.816 149.493 316.03 150.08C316.243 150.64 316.696 150.92 317.39 150.92C317.923 150.92 318.296 150.76 318.51 150.44C318.75 150.12 318.883 149.76 318.91 149.36C318.963 148.933 318.99 148.32 318.99 147.52V144.68H325.95V146.36C325.95 149.773 325.283 152.293 323.95 153.92C322.643 155.52 320.376 156.32 317.15 156.32ZM318.99 138.52V134.76C318.99 132.653 318.47 131.6 317.43 131.6C316.256 131.6 315.67 132.653 315.67 134.76V138.52H318.99ZM330.481 126.72H337.481V129.96C337.828 128.813 338.428 127.933 339.281 127.32C340.161 126.68 341.241 126.36 342.521 126.36V132.2C341.534 132.2 340.441 132.347 339.241 132.64C338.068 132.907 337.481 133.227 337.481 133.6V156H330.481V126.72ZM354.271 156.32C348.484 156.32 345.591 153.387 345.591 147.52L345.631 145.2H352.631L352.671 148.64C352.671 149.333 352.804 149.867 353.071 150.24C353.338 150.587 353.778 150.76 354.391 150.76C355.324 150.76 355.791 150 355.791 148.48C355.791 147.36 355.564 146.48 355.111 145.84C354.684 145.2 353.991 144.52 353.031 143.8L349.311 140.92C348.031 139.933 347.111 138.92 346.551 137.88C345.991 136.813 345.711 135.32 345.711 133.4C345.711 131.907 346.098 130.64 346.871 129.6C347.671 128.533 348.724 127.733 350.031 127.2C351.338 126.667 352.791 126.4 354.391 126.4C360.071 126.4 362.911 129.227 362.911 134.88V135.44H355.671V134.32C355.671 133.627 355.551 133.04 355.311 132.56C355.098 132.053 354.724 131.8 354.191 131.8C353.711 131.8 353.338 131.947 353.071 132.24C352.831 132.507 352.711 132.88 352.711 133.36C352.711 134.427 353.124 135.253 353.951 135.84L358.271 139C359.818 140.147 361.004 141.4 361.831 142.76C362.658 144.093 363.071 145.787 363.071 147.84C363.071 150.56 362.298 152.653 360.751 154.12C359.204 155.587 357.044 156.32 354.271 156.32ZM367.175 124.76V119.88H374.175V124.76H367.175ZM367.175 156V126.72H374.175V156H367.175ZM384.982 156.32C383.142 156.32 381.875 155.933 381.182 155.16C380.489 154.387 380.142 153.147 380.142 151.44V133.16H378.182V127.84H380.142V121.64H386.942V127.84H388.942V133.16H386.942V149.6C386.942 150.107 386.982 150.48 387.062 150.72C387.142 150.96 387.355 151.08 387.702 151.08C387.969 151.08 388.222 151.067 388.462 151.04C388.702 151.013 388.862 151 388.942 151V155.8C388.542 155.907 387.955 156.013 387.182 156.12C386.435 156.253 385.702 156.32 384.982 156.32ZM398.449 156.32C396.183 156.32 394.623 155.573 393.769 154.08C392.943 152.56 392.529 150.4 392.529 147.6C392.529 145.307 392.823 143.547 393.409 142.32C394.023 141.093 394.863 140.2 395.929 139.64C396.996 139.053 398.623 138.413 400.809 137.72L402.729 137.08V137V134.08C402.729 133.307 402.569 132.72 402.249 132.32C401.956 131.893 401.596 131.68 401.169 131.68C400.796 131.68 400.463 131.853 400.169 132.2C399.903 132.547 399.769 133.013 399.769 133.6V135.36H392.969V134.4C392.969 131.52 393.636 129.467 394.969 128.24C396.329 127.013 398.529 126.4 401.569 126.4C403.996 126.4 405.969 127.04 407.489 128.32C409.009 129.573 409.769 131.36 409.769 133.68V156H402.809V152.52C402.463 153.72 401.903 154.653 401.129 155.32C400.383 155.987 399.489 156.32 398.449 156.32ZM401.209 150.88C401.743 150.88 402.116 150.667 402.329 150.24C402.569 149.787 402.689 149.24 402.689 148.6V140.44C401.649 140.84 400.876 141.347 400.369 141.96C399.889 142.573 399.649 143.427 399.649 144.52V148.28C399.649 150.013 400.169 150.88 401.209 150.88ZM396.889 125.36V121L406.169 116.72V123.52L396.889 125.36ZM414.465 126.72H421.465V129.96C421.812 128.813 422.412 127.933 423.265 127.32C424.145 126.68 425.225 126.36 426.505 126.36V132.2C425.519 132.2 424.425 132.347 423.225 132.64C422.052 132.907 421.465 133.227 421.465 133.6V156H414.465V126.72ZM430.175 124.76V119.88H437.175V124.76H430.175ZM430.175 156V126.72H437.175V156H430.175ZM450.462 156.32C444.622 156.32 441.702 153.293 441.702 147.24V135.48C441.702 132.707 442.475 130.507 444.022 128.88C445.595 127.227 447.742 126.4 450.462 126.4C453.182 126.4 455.315 127.227 456.862 128.88C458.435 130.507 459.222 132.707 459.222 135.48V147.24C459.222 153.293 456.302 156.32 450.462 156.32ZM450.462 150.92C451.022 150.92 451.435 150.72 451.702 150.32C451.969 149.92 452.102 149.373 452.102 148.68V134.36C452.102 132.653 451.555 131.8 450.462 131.8C449.369 131.8 448.822 132.653 448.822 134.36V148.68C448.822 149.373 448.955 149.92 449.222 150.32C449.489 150.72 449.902 150.92 450.462 150.92ZM471.865 156.32C466.078 156.32 463.185 153.387 463.185 147.52L463.225 145.2H470.225L470.265 148.64C470.265 149.333 470.398 149.867 470.665 150.24C470.931 150.587 471.371 150.76 471.985 150.76C472.918 150.76 473.385 150 473.385 148.48C473.385 147.36 473.158 146.48 472.705 145.84C472.278 145.2 471.585 144.52 470.625 143.8L466.905 140.92C465.625 139.933 464.705 138.92 464.145 137.88C463.585 136.813 463.305 135.32 463.305 133.4C463.305 131.907 463.691 130.64 464.465 129.6C465.265 128.533 466.318 127.733 467.625 127.2C468.931 126.667 470.385 126.4 471.985 126.4C477.665 126.4 480.505 129.227 480.505 134.88V135.44H473.265V134.32C473.265 133.627 473.145 133.04 472.905 132.56C472.691 132.053 472.318 131.8 471.785 131.8C471.305 131.8 470.931 131.947 470.665 132.24C470.425 132.507 470.305 132.88 470.305 133.36C470.305 134.427 470.718 135.253 471.545 135.84L475.865 139C477.411 140.147 478.598 141.4 479.425 142.76C480.251 144.093 480.665 145.787 480.665 147.84C480.665 150.56 479.891 152.653 478.345 154.12C476.798 155.587 474.638 156.32 471.865 156.32Z" fill="#FFFCFC"/>
</svg>
